#!OML:ASF X:\für Bonn\!DataBase\2005_08_10_Bjorn_Final\c3d\bjorn.ASF
:FULLY-SPECIFIED
:DEGREES
126
root 1.19158 18.7772 2.60111 -181.434 6.85071 -200.335
lowerback 5.36476 -3.87168 13.5674
upperback 13.0666 -3.30989 1.59264
thorax 10.4959 0.501212 -5.69617
lowerneck -5.43284 7.21704 -0.37544
upperneck 8.83867 15.1764 -24.5844
head 5.59878 7.28948 -6.47893
rclavicle 4.6118e-014 4.77083e-014
rhumerus -45.6082 -24.2677 -71.7235
rradius 33.4542
rwrist -21.7291
rhand -9.21311 10.1196
rfingers 7.12502
rthumb 16.7413 -19.1785
lclavicle 4.6118e-014 4.77083e-014
lhumerus -10.1571 -9.05404 48.5771
lradius 92.1568
lwrist -36.2593
lhand -53.1173 -33.1572
lfingers 7.12502
lthumb -25.5781 -4.85463
rfemur -20.2521 5.30808 -2.87776
rtibia 44.3513
rfoot -23.1095 10.0239
rtoes -16.2174
lfemur -17.2167 -3.23742 -24.3423
ltibia 48.5095
lfoot -17.7534 6.48984
ltoes -16.936
127
root 1.18986 18.7898 2.61278 -181.333 7.00136 -199.941
lowerback 5.41242 -3.80691 13.6138
upperback 13.0345 -3.22206 1.58649
thorax 10.4482 0.54027 -5.7271
lowerneck -5.26448 7.16905 -0.450568
upperneck 8.79963 15.0622 -24.4677
head 5.5238 7.24528 -6.44997
rclavicle 2.22639e-014 1.01778e-013
rhumerus -44.6891 -23.352 -73.1501
rradius 33.9573
rwrist -20.7412
rhand -9.11106 10.0447
rfingers 7.12502
rthumb 16.8395 -19.2452
lclavicle 2.22639e-014 1.01778e-013
lhumerus -10.5499 -10.4792 49.422
lradius 91.696
lwrist -36.5327
lhand -53.0128 -32.8146
lfingers 7.12502
lthumb -25.478 -4.49774
rfemur -20.3305 5.36368 -2.44125
rtibia 44.1951
rfoot -23.0273 9.9754
rtoes -16.6659
lfemur -17.596 -3.14194 -25.0243
ltibia 48.5674
lfoot -18.5761 5.69783
ltoes -17.4135
128
root 1.18876 18.8002 2.62511 -181.231 7.15931 -199.526
lowerback 5.45692 -3.7279 13.6654
upperback 13.0032 -3.11574 1.59197
thorax 10.408 0.588921 -5.74804
lowerneck -5.09086 7.10426 -0.530996
upperneck 8.76067 14.9273 -24.3528
head 5.44535 7.19219 -6.42293
rclavicle 1.27222e-014 -4.13472e-014
rhumerus -43.7537 -22.3915 -74.488
rradius 34.4857
rwrist -19.744
rhand -9.03586 9.91732
rfingers 7.12502
rthumb 16.9119 -19.3663
lclavicle 1.27222e-014 -4.13472e-014
lhumerus -10.9693 -11.9078 50.2893
lradius 91.1782
lwrist -36.6505
lhand -52.7694 -32.6007
lfingers 7.12502
lthumb -25.2448 -4.25072
rfemur -20.4142 5.45437 -1.98503
rtibia 44.0451
rfoot -22.8955 9.98415
rtoes -16.769
lfemur -17.9881 -3.00653 -25.6596
ltibia 48.6637
lfoot -19.2126 4.98171
ltoes -17.7772
129
root 1.1888 18.8092 2.63742 -181.138 7.30433 -199.107
lowerback 5.51389 -3.6482 13.7036
upperback 12.9576 -3.00812 1.59546
thorax 10.344 0.633479 -5.764
lowerneck -4.87885 7.04864 -0.65642
upperneck 8.6976 14.7833 -24.1789
head 5.34327 7.1378 -6.37216
rclavicle 1.11319e-014 4.13472e-014
rhumerus -42.8564 -21.4145 -75.7261
rradius 35.0079
rwrist -18.7314
rhand -8.97635 9.87479
rfingers 7.12502
rthumb 16.9692 -19.404
lclavicle 1.11319e-014 4.13472e-014
lhumerus -11.4135 -13.3385 51.1695
lradius 90.5627
lwrist -36.6794
lhand -52.4515 -32.4857
lfingers 7.12502
lthumb -24.9402 -4.09313
rfemur -20.4835 5.49157 -1.52072
rtibia 43.8955
rfoot -22.7546 10.0358
rtoes -16.8734
lfemur -18.3778 -2.92706 -26.25
ltibia 48.7994
lfoot -19.7325 4.3237
ltoes -17.449
130
root 1.19128 18.8192 2.64883 -181.049 7.45302 -198.687
lowerback 5.54735 -3.55825 13.7064
upperback 12.9231 -2.89077 1.60432
thorax 10.3095 0.681988 -5.75519
lowerneck -4.6759 6.98056 -0.768998
upperneck 8.6418 14.628 -24.0194
head 5.24652 7.0772 -6.32858
rclavicle -1.59028e-015 -2.8625e-014
rhumerus -41.9804 -20.4725 -76.8356
rradius 35.549
rwrist -17.6394
rhand -8.94581 9.905
rfingers 7.12502
rthumb 16.9986 -19.3712
lclavicle -1.59028e-015 -2.8625e-014
lhumerus -11.8855 -14.7666 52.0615
lradius 89.8878
lwrist -36.5916
lhand -52.1236 -32.3931
lfingers 7.12502
lthumb -24.6259 -3.95737
rfemur -20.5401 5.47261 -1.05777
rtibia 43.7226
rfoot -22.5785 10.1884
rtoes -16.8227
lfemur -18.7698 -2.81265 -26.8036
ltibia 48.9663
lfoot -20.1725 3.75723
ltoes -17.0866
